<svg width="342" height="173" xmlns="http://www.w3.org/2000/svg" xmlns:xlink="http://www.w3.org/1999/xlink" xml:space="preserve" overflow="hidden"><g transform="translate(-3106 -203)"><path d="M3117.5 305.407 3298.31 219.5 3441.5 291.024 3272.66 372.5C3219.66 349.874 3179.3 328.092 3126.3 305.465L3117.5 305.407Z" stroke="#3B7D23" stroke-width="4.58333" stroke-miterlimit="8" fill="#4EA72E" fill-rule="evenodd"/><path d="M0 133 20.657 0 50.989 0.104012C51.4672 25.006 36.3756 54.3279 36.8539 79.2299L29.706 133 0 133Z" stroke="#7F7F7F" stroke-width="3.4375" stroke-miterlimit="8" fill="#53432D" fill-rule="evenodd" transform="matrix(-6.12323e-17 -1 -1 6.12323e-17 3380.5 326.5)"/><path d="M3238.5 325.507 3296.2 314.746 3380.5 306.5 3304.62 332.5 3238.5 325.507Z" stroke="#7F7F7F" stroke-width="3.4375" stroke-miterlimit="8" fill="#877052" fill-rule="evenodd"/><path d="M0 106.46 3.56287 0 13.4301 0 16.993 106.46Z" stroke="#7F7F7F" stroke-width="3.4375" stroke-miterlimit="8" fill="#877052" fill-rule="evenodd" transform="matrix(-0.148639 -0.988892 -0.988892 0.148639 3346.88 268.512)"/><path d="M0 29.041 32.3554 0 145.025 0 112.67 29.041Z" stroke="#7F7F7F" stroke-width="3.4375" stroke-miterlimit="8" fill="#80350E" fill-rule="evenodd" transform="matrix(0.984788 -0.173763 -0.173763 -0.984788 3201.52 278.607)"/><path d="M3294.5 291.5 3300.42 291.5C3300.44 304.603 3300.47 317.397 3300.5 330.5L3294.5 329.959 3294.5 291.5Z" stroke="#7F7F7F" stroke-width="3.4375" stroke-miterlimit="8" fill="#BDAD8D" fill-rule="evenodd"/><rect x="3241.5" y="291.5" width="5.99976" height="34" stroke="#7F7F7F" stroke-width="3.4375" stroke-miterlimit="8" fill="#BDAD8D"/><rect x="3194.5" y="225.5" width="16.0002" height="21" stroke="#7F7F7F" stroke-width="3.4375" stroke-miterlimit="8" fill="#BDAD8D"/><path d="M0 0 0.000360892 15.8576" stroke="#7F7F7F" stroke-width="4.58333" stroke-miterlimit="8" fill="none" fill-rule="evenodd" transform="matrix(1 0 0 -1 3203.5 225.357)"/><path d="M3202.5 205.5 3224.5 209.75 3224.5 222.5 3202.5 218.25Z" stroke="#7F7F7F" stroke-width="3.4375" stroke-miterlimit="8" fill="#C1E5F5" fill-rule="evenodd"/><path d="M3239.5 295.5 3239.5 279.5 3300.5 290.788 3239.5 295.5Z" stroke="#7F7F7F" stroke-width="3.4375" stroke-miterlimit="8" fill="#BDAD8D" fill-rule="evenodd"/><path d="M0 20.3713 62.7858 0 139.906 2.8534 107.601 21.873 0 20.3713Z" stroke="#7F7F7F" stroke-width="3.4375" stroke-miterlimit="8" fill="#80350E" fill-rule="evenodd" transform="matrix(0.986224 -0.165413 -0.165413 -0.986224 3243 300.992)"/><path d="M3164.5 272.5 3201.2 239.5 3240.5 270.265 3164.5 272.5Z" stroke="#7F7F7F" stroke-width="3.4375" stroke-miterlimit="8" fill="#BDAD8D" fill-rule="evenodd"/><path d="M3240.5 326.5 3164.5 317.683 3164.5 272.71 3240.5 270.5 3240.5 326.5Z" stroke="#7F7F7F" stroke-width="3.4375" stroke-miterlimit="8" fill="#BDAD8D" fill-rule="evenodd"/><path d="M3218.04 323.5 3184.5 319.345 3184.5 292.837 3218.5 291.5 3218.04 323.5Z" stroke="#7F7F7F" stroke-width="3.4375" stroke-miterlimit="8" fill="#53432D" fill-rule="evenodd"/><path d="M0 0 4.92931 0C4.95279 11.4232 4.97632 22.5769 4.9998 34L0 33.5283 0 0Z" stroke="#7F7F7F" stroke-width="3.4375" stroke-miterlimit="8" fill="#BDAD8D" fill-rule="evenodd" transform="matrix(-1 0 0 1 3380.5 275.5)"/></g></svg>