<svg width="377" height="186" xmlns="http://www.w3.org/2000/svg" xmlns:xlink="http://www.w3.org/1999/xlink" xml:space="preserve" overflow="hidden"><g transform="translate(-3151 -321)"><path d="M3157.5 428.541 3371.26 324.5 3521.5 397.719 3315.7 503.5 3157.5 428.541Z" stroke="#3B7D23" stroke-width="4.58333" stroke-miterlimit="8" fill="#4EA72E" fill-rule="evenodd"/><path d="M3385.32 370.643 3396.7 352.846 3413.43 361.631 3385.32 370.643Z" fill="#7F7F7F" fill-rule="evenodd"/><path d="M3354.23 351 3386 366.606 3386 382 3354 365.229 3354.23 351Z" fill="#BDAD8D" fill-rule="evenodd"/><path d="M0 29.0002 9.38169 0 22 0 12.6183 29.0002Z" fill="#7F7F7F" fill-rule="evenodd" transform="matrix(-6.12323e-17 -1 -1 6.12323e-17 3415 383)"/><path d="M3402.91 355.952 3387.42 367.539 3350.92 350.979 3366.41 339.392Z" fill="#595959" fill-rule="evenodd"/><path d="M0 43.9257 18.9798 10.6225 29.4232 0 14.0748 28.646 0 43.9257Z" fill="#595959" fill-rule="evenodd" transform="matrix(0.862319 -0.506365 -0.506365 -0.862319 3389.35 377.603)"/><path d="M3341.49 391.796 3352.88 373.998 3369.61 382.784 3341.49 391.796Z" fill="#7F7F7F" fill-rule="evenodd"/><path d="M3310.23 373 3342 388.606 3342 404 3310 387.229 3310.23 373Z" fill="#BDAD8D" fill-rule="evenodd"/><path d="M0 29.0002 9.38169 0 22 0 12.6183 29.0002Z" fill="#7F7F7F" fill-rule="evenodd" transform="matrix(-6.12323e-17 -1 -1 6.12323e-17 3371 404)"/><path d="M3359.09 377.105 3343.59 388.692 3307.09 372.132 3322.59 360.545Z" fill="#595959" fill-rule="evenodd"/><path d="M0 43.9257 18.9798 10.6225 29.4232 0 14.0748 28.646 0 43.9257Z" fill="#595959" fill-rule="evenodd" transform="matrix(0.862319 -0.506365 -0.506365 -0.862319 3345.52 398.755)"/><path d="M3298.52 413.857 3309.91 396.059 3326.64 404.845 3298.52 413.857Z" fill="#7F7F7F" fill-rule="evenodd"/><path d="M3267.23 395 3299 410.606 3299 426 3267 409.229 3267.23 395Z" fill="#BDAD8D" fill-rule="evenodd"/><path d="M0 28.9999 9.38158 0 21.9997 0 12.6182 28.9999Z" fill="#7F7F7F" fill-rule="evenodd" transform="matrix(-6.12323e-17 -1 -1 6.12323e-17 3328 426)"/><path d="M3316.12 399.166 3300.63 410.753 3264.12 394.192 3279.62 382.605Z" fill="#595959" fill-rule="evenodd"/><path d="M0 43.9257 18.9798 10.6225 29.4232 0 14.0748 28.646 0 43.9257Z" fill="#595959" fill-rule="evenodd" transform="matrix(0.862319 -0.506365 -0.506365 -0.862319 3302.55 420.816)"/><path d="M3248.79 434.821 3260.18 417.023 3276.91 425.809 3248.79 434.821Z" fill="#7F7F7F" fill-rule="evenodd"/><path d="M3218.23 416 3249 431.606 3249 447 3218 430.229 3218.23 416Z" fill="#BDAD8D" fill-rule="evenodd"/><path d="M0 28.9999 9.38158 0 21.9997 0 12.6182 28.9999Z" fill="#7F7F7F" fill-rule="evenodd" transform="matrix(-6.12323e-17 -1 -1 6.12323e-17 3278 447)"/><path d="M3266.39 420.13 3250.89 431.717 3214.39 415.157 3229.89 403.57Z" fill="#595959" fill-rule="evenodd"/><path d="M0 43.9257 18.9798 10.6225 29.4232 0 14.0748 28.646 0 43.9257Z" fill="#595959" fill-rule="evenodd" transform="matrix(0.862319 -0.506365 -0.506365 -0.862319 3252.82 441.78)"/><path d="M3450.58 399.128 3461.97 381.331 3478.7 390.116 3450.58 399.128Z" fill="#7F7F7F" fill-rule="evenodd"/><path d="M3420.23 380 3451 395.605 3451 411 3420 394.229 3420.23 380Z" fill="#BDAD8D" fill-rule="evenodd"/><path d="M0 29.0002 9.38169 0 22 0 12.6183 29.0002Z" fill="#7F7F7F" fill-rule="evenodd" transform="matrix(-6.12323e-17 -1 -1 6.12323e-17 3480 411)"/><path d="M3468.18 384.437 3452.69 396.024 3416.18 379.464 3431.68 367.877Z" fill="#595959" fill-rule="evenodd"/><path d="M0 43.9257 18.9798 10.6225 29.4232 0 14.0748 28.646 0 43.9257Z" fill="#595959" fill-rule="evenodd" transform="matrix(0.862319 -0.506365 -0.506365 -0.862319 3454.61 406.088)"/><path d="M3406.76 420.281 3418.14 402.483 3434.87 411.269 3406.76 420.281Z" fill="#7F7F7F" fill-rule="evenodd"/><path d="M3376.23 401 3407 416.606 3407 432 3376 415.229 3376.23 401Z" fill="#BDAD8D" fill-rule="evenodd"/><path d="M0 29.0002 8.95522 0 21 0 12.0447 29.0002Z" fill="#7F7F7F" fill-rule="evenodd" transform="matrix(-6.12323e-17 -1 -1 6.12323e-17 3436 432)"/><path d="M3424.35 405.59 3408.86 417.177 3372.36 400.617 3387.85 389.03Z" fill="#595959" fill-rule="evenodd"/><path d="M0 43.9257 18.9798 10.6225 29.4232 0 14.0748 28.646 0 43.9257Z" fill="#595959" fill-rule="evenodd" transform="matrix(0.862319 -0.506365 -0.506365 -0.862319 3410.78 427.24)"/><path d="M3363.79 442.341 3375.18 424.544 3391.9 433.329 3363.79 442.341Z" fill="#7F7F7F" fill-rule="evenodd"/><path d="M3333.23 423 3364 438.606 3364 454 3333 437.229 3333.23 423Z" fill="#BDAD8D" fill-rule="evenodd"/><path d="M0 29.0002 8.95522 0 21 0 12.0447 29.0002Z" fill="#7F7F7F" fill-rule="evenodd" transform="matrix(-6.12323e-17 -1 -1 6.12323e-17 3393 454)"/><path d="M3381.39 427.651 3365.89 439.238 3329.39 422.677 3344.88 411.09Z" fill="#595959" fill-rule="evenodd"/><path d="M0 43.9257 18.9798 10.6225 29.4232 0 14.0748 28.646 0 43.9257Z" fill="#595959" fill-rule="evenodd" transform="matrix(0.862319 -0.506365 -0.506365 -0.862319 3367.82 449.301)"/><path d="M3314.06 463.306 3325.44 445.508 3342.17 454.294 3314.06 463.306Z" fill="#7F7F7F" fill-rule="evenodd"/><path d="M3283.23 444 3315 459.606 3315 475 3283 458.229 3283.23 444Z" fill="#BDAD8D" fill-rule="evenodd"/><path d="M0 27.9998 8.9554 0 21.0003 0 12.0449 27.9998Z" fill="#7F7F7F" fill-rule="evenodd" transform="matrix(-6.12323e-17 -1 -1 6.12323e-17 3343 475)"/><path d="M3331.66 448.615 3316.16 460.202 3279.66 443.642 3295.15 432.054Z" fill="#595959" fill-rule="evenodd"/><path d="M0 43.9257 18.9798 10.6225 29.4232 0 14.0748 28.646 0 43.9257Z" fill="#595959" fill-rule="evenodd" transform="matrix(0.862319 -0.506365 -0.506365 -0.862319 3318.09 470.265)"/></g></svg>