<svg width="415" height="253" xmlns="http://www.w3.org/2000/svg" xmlns:xlink="http://www.w3.org/1999/xlink" xml:space="preserve" overflow="hidden"><g transform="translate(-2887 -62)"><path d="M2892.5 198.434 3078.66 105.5 3295.5 218.955 3099.12 311.5 2892.5 198.434Z" stroke="#3B7D23" stroke-width="4.58333" stroke-miterlimit="8" fill="#4EA72E" fill-rule="evenodd"/><path d="M3051.88 168.833C3052.35 146.863 3068.33 130.059 3087.58 131.301 3106.28 132.509 3121.29 150.37 3121.57 171.762Z" fill="#A4C3CA" fill-rule="evenodd"/><path d="M2962.07 176.526 3079.4 132.322 3120.45 172.744 3008.2 220.161 2962.07 176.526Z" fill="#A4C3CA" fill-rule="evenodd"/><path d="M2994.28 167.88C3013.36 165.643 3031.13 183.541 3033.98 207.856" stroke="#DCEAF7" stroke-width="4.58333" stroke-miterlimit="8" fill="none" fill-rule="evenodd"/><path d="M3026.42 154.534C3044.99 152.356 3062.29 169.778 3065.07 193.446" stroke="#DCEAF7" stroke-width="4.58333" stroke-miterlimit="8" fill="none" fill-rule="evenodd"/><path d="M3055.02 142.527C3073.59 140.35 3090.89 157.772 3093.66 181.44" stroke="#DCEAF7" stroke-width="4.58333" stroke-miterlimit="8" fill="none" fill-rule="evenodd"/><path d="M2937.89 213.22C2936.52 192.483 2951 175.058 2970.24 174.301 2989.48 173.544 3006.19 189.742 3007.56 210.479 3007.86 215.053 3007.38 219.618 3006.15 223.951Z" fill="#83A0CF" fill-rule="evenodd"/><path d="M2960.67 198.393 2979.12 201.244 2981.49 221.409 2963.03 218.558Z" fill="#156082" fill-rule="evenodd"/><path d="M3180.42 227.073C3180.89 205.103 3196.87 188.299 3216.11 189.541 3234.82 190.748 3249.83 208.61 3250.11 230.001Z" fill="#A4C3CA" fill-rule="evenodd"/><path d="M3090.61 234.766 3207.94 190.562 3248.99 230.984 3136.74 278.401 3090.61 234.766Z" fill="#A4C3CA" fill-rule="evenodd"/><path d="M3122.82 226.12C3141.89 223.883 3159.67 241.781 3162.52 266.095" stroke="#DCEAF7" stroke-width="4.58333" stroke-miterlimit="8" fill="none" fill-rule="evenodd"/><path d="M3154.96 212.773C3173.53 210.596 3190.83 228.018 3193.6 251.686" stroke="#DCEAF7" stroke-width="4.58333" stroke-miterlimit="8" fill="none" fill-rule="evenodd"/><path d="M3183.55 200.767C3202.12 198.59 3219.43 216.012 3222.2 239.68" stroke="#DCEAF7" stroke-width="4.58333" stroke-miterlimit="8" fill="none" fill-rule="evenodd"/><path d="M3066.42 271.46C3065.05 250.722 3079.54 233.298 3098.78 232.541 3118.02 231.784 3134.72 247.981 3136.09 268.719 3136.4 273.292 3135.92 277.858 3134.69 282.19Z" fill="#83A0CF" fill-rule="evenodd"/><path d="M3089.21 256.633 3107.66 259.483 3110.02 279.649 3091.57 276.798Z" fill="#156082" fill-rule="evenodd"/><g><g><g><path d="M3.94343 31.8932C4.136 35.2806 5.6302 38.4625 8.11391 40.7741 10.5974 43.0855 13.8779 44.3477 17.2704 44.2971L29.5313 44.2971 29.5313 23.6252 33.4687 23.6252 33.4687 31.7265C33.4687 32.045 33.5955 32.3506 33.8209 32.5757 34.046 32.8009 34.3518 32.9272 34.6703 32.927 34.9888 32.9268 35.2944 32.7998 35.5193 32.5743L40.6959 27.3834 43.4914 30.1788 34.622 39.0486C33.8835 39.7871 33.4689 40.7888 33.4689 41.8332L33.4689 44.2968 45.7292 44.2968C49.1218 44.3476 52.4024 43.0854 54.886 40.774 57.3698 38.4623 58.864 35.2804 59.0566 31.8931 59.127 29.6034 58.5815 27.3369 57.4769 25.3295 56.3723 23.3226 54.7495 21.649 52.7771 20.4833 50.8054 19.3177 48.5566 18.7028 46.2658 18.7028L45.2814 18.7028 45.2814 17.7185C45.2831 15.2528 44.6229 12.8319 43.3695 10.7081 42.1163 8.58479 40.3157 6.83691 38.1562 5.64684 35.9967 4.45675 33.5573 3.86838 31.0929 3.94283 27.4429 4.14504 24.0127 5.751 21.52 8.42503 19.0273 11.0988 17.6654 14.6331 17.7193 18.2887L17.7193 18.7029 16.7349 18.7029C14.4442 18.7029 12.1953 19.3178 10.2234 20.4834 8.25115 21.6491 6.62817 23.3227 5.52357 25.3296 4.41902 27.3367 3.8735 29.6032 3.94385 31.8932Z" fill="#275317" transform="matrix(1.01587 0 0 1 3170 123)"/><path d="M29.5312 44.2968 33.4687 44.2968 33.4687 59.0624 29.5312 59.0624Z" fill="#275317" transform="matrix(1.01587 0 0 1 3170 123)"/></g></g></g><g><g><g><path d="M3.94343 31.8932C4.136 35.2806 5.6302 38.4625 8.11391 40.7741 10.5974 43.0855 13.8779 44.3477 17.2704 44.2971L29.5313 44.2971 29.5313 23.6252 33.4687 23.6252 33.4687 31.7265C33.4687 32.045 33.5955 32.3506 33.8209 32.5757 34.046 32.8009 34.3518 32.9272 34.6703 32.927 34.9888 32.9268 35.2944 32.7998 35.5193 32.5743L40.6959 27.3834 43.4914 30.1788 34.622 39.0486C33.8835 39.7871 33.4689 40.7888 33.4689 41.8332L33.4689 44.2968 45.7292 44.2968C49.1218 44.3476 52.4024 43.0854 54.886 40.774 57.3698 38.4623 58.864 35.2804 59.0566 31.8931 59.127 29.6034 58.5815 27.3369 57.4769 25.3295 56.3723 23.3226 54.7495 21.649 52.7771 20.4833 50.8054 19.3177 48.5566 18.7028 46.2658 18.7028L45.2814 18.7028 45.2814 17.7185C45.2831 15.2528 44.6229 12.8319 43.3695 10.7081 42.1163 8.58479 40.3157 6.83691 38.1562 5.64684 35.9967 4.45675 33.5573 3.86838 31.0929 3.94283 27.4429 4.14504 24.0127 5.751 21.52 8.42503 19.0273 11.0988 17.6654 14.6331 17.7193 18.2887L17.7193 18.7029 16.7349 18.7029C14.4442 18.7029 12.1953 19.3178 10.2234 20.4834 8.25115 21.6491 6.62817 23.3227 5.52357 25.3296 4.41902 27.3367 3.8735 29.6032 3.94385 31.8932Z" fill="#275317" transform="matrix(1 0 0 1.01587 3234 176)"/><path d="M29.5312 44.2968 33.4687 44.2968 33.4687 59.0624 29.5312 59.0624Z" fill="#275317" transform="matrix(1 0 0 1.01587 3234 176)"/></g></g></g><g><g><g><path d="M3059.94 93.8932C3060.14 97.2807 3061.63 100.463 3064.11 102.774 3066.6 105.086 3069.88 106.348 3073.27 106.297L3085.53 106.297 3085.53 85.6252 3089.47 85.6252 3089.47 93.7265C3089.47 94.045 3089.6 94.3506 3089.82 94.5758 3090.05 94.801 3090.35 94.9273 3090.67 94.9271 3090.99 94.9268 3091.29 94.7999 3091.52 94.5744L3096.7 89.3834 3099.49 92.1788 3090.62 101.049C3089.88 101.787 3089.47 102.789 3089.47 103.833L3089.47 106.297 3101.73 106.297C3105.12 106.348 3108.4 105.086 3110.89 102.774 3113.37 100.462 3114.86 97.2804 3115.06 93.8931 3115.13 91.6034 3114.58 89.3369 3113.48 87.3295 3112.37 85.3226 3110.75 83.649 3108.78 82.4833 3106.81 81.3176 3104.56 80.7028 3102.27 80.7028L3101.28 80.7028 3101.28 79.7184C3101.28 77.2528 3100.62 74.8318 3099.37 72.7081 3098.12 70.5847 3096.32 68.8368 3094.16 67.6467 3092 66.4566 3089.56 65.8683 3087.09 65.9427 3083.44 66.1449 3080.01 67.7509 3077.52 70.4249 3075.03 73.0988 3073.67 76.6331 3073.72 80.2887L3073.72 80.7029 3072.73 80.7029C3070.44 80.7029 3068.2 81.3177 3066.22 82.4834 3064.25 83.6491 3062.63 85.3227 3061.52 87.3297 3060.42 89.3367 3059.87 91.6033 3059.94 93.8932Z" fill="#275317"/><path d="M3085.53 106.297 3089.47 106.297 3089.47 121.063 3085.53 121.063Z" fill="#275317"/></g></g></g><g><g><g><path d="M3.94343 31.8932C4.136 35.2806 5.6302 38.4625 8.11391 40.7741 10.5974 43.0855 13.8779 44.3477 17.2704 44.2971L29.5313 44.2971 29.5313 23.6252 33.4687 23.6252 33.4687 31.7265C33.4687 32.045 33.5955 32.3506 33.8209 32.5757 34.046 32.8009 34.3518 32.9272 34.6703 32.927 34.9888 32.9268 35.2944 32.7998 35.5193 32.5743L40.6959 27.3834 43.4914 30.1788 34.622 39.0486C33.8835 39.7871 33.4689 40.7888 33.4689 41.8332L33.4689 44.2968 45.7292 44.2968C49.1218 44.3476 52.4024 43.0854 54.886 40.774 57.3698 38.4623 58.864 35.2804 59.0566 31.8931 59.127 29.6034 58.5815 27.3369 57.4769 25.3295 56.3723 23.3226 54.7495 21.649 52.7771 20.4833 50.8054 19.3177 48.5566 18.7028 46.2658 18.7028L45.2814 18.7028 45.2814 17.7185C45.2831 15.2528 44.6229 12.8319 43.3695 10.7081 42.1163 8.58479 40.3157 6.83691 38.1562 5.64684 35.9967 4.45675 33.5573 3.86838 31.0929 3.94283 27.4429 4.14504 24.0127 5.751 21.52 8.42503 19.0273 11.0988 17.6654 14.6331 17.7193 18.2887L17.7193 18.7029 16.7349 18.7029C14.4442 18.7029 12.1953 19.3178 10.2234 20.4834 8.25115 21.6491 6.62817 23.3227 5.52357 25.3296 4.41902 27.3367 3.8735 29.6032 3.94385 31.8932Z" fill="#275317" transform="matrix(1.01587 0 0 1 3078 74.9999)"/><path d="M29.5312 44.2968 33.4687 44.2968 33.4687 59.0624 29.5312 59.0624Z" fill="#275317" transform="matrix(1.01587 0 0 1 3078 74.9999)"/></g></g></g><g><g><g><path d="M3.94343 31.8932C4.136 35.2806 5.6302 38.4625 8.11391 40.7741 10.5974 43.0855 13.8779 44.3477 17.2704 44.2971L29.5313 44.2971 29.5313 23.6252 33.4687 23.6252 33.4687 31.7265C33.4687 32.045 33.5955 32.3506 33.8209 32.5757 34.046 32.8009 34.3518 32.9272 34.6703 32.927 34.9888 32.9268 35.2944 32.7998 35.5193 32.5743L40.6959 27.3834 43.4914 30.1788 34.622 39.0486C33.8835 39.7871 33.4689 40.7888 33.4689 41.8332L33.4689 44.2968 45.7292 44.2968C49.1218 44.3476 52.4024 43.0854 54.886 40.774 57.3698 38.4623 58.864 35.2804 59.0566 31.8931 59.127 29.6034 58.5815 27.3369 57.4769 25.3295 56.3723 23.3226 54.7495 21.649 52.7771 20.4833 50.8054 19.3177 48.5566 18.7028 46.2658 18.7028L45.2814 18.7028 45.2814 17.7185C45.2831 15.2528 44.6229 12.8319 43.3695 10.7081 42.1163 8.58479 40.3157 6.83691 38.1562 5.64684 35.9967 4.45675 33.5573 3.86838 31.0929 3.94283 27.4429 4.14504 24.0127 5.751 21.52 8.42503 19.0273 11.0988 17.6654 14.6331 17.7193 18.2887L17.7193 18.7029 16.7349 18.7029C14.4442 18.7029 12.1953 19.3178 10.2234 20.4834 8.25115 21.6491 6.62817 23.3227 5.52357 25.3296 4.41902 27.3367 3.8735 29.6032 3.94385 31.8932Z" fill="#275317" transform="matrix(1 0 0 1.01587 3019 77)"/><path d="M29.5312 44.2968 33.4687 44.2968 33.4687 59.0624 29.5312 59.0624Z" fill="#275317" transform="matrix(1 0 0 1.01587 3019 77)"/></g></g></g><path d="M3118.01 196.597C3118.49 174.627 3134.47 157.823 3153.71 159.065 3172.42 160.273 3187.43 178.134 3187.7 199.526Z" fill="#A4C3CA" fill-rule="evenodd"/><path d="M3028.2 204.29 3145.54 160.086 3186.59 200.508 3074.33 247.925 3028.2 204.29Z" fill="#A4C3CA" fill-rule="evenodd"/><path d="M3060.42 195.644C3079.49 193.407 3097.27 211.305 3100.12 235.619" stroke="#DCEAF7" stroke-width="4.58333" stroke-miterlimit="8" fill="none" fill-rule="evenodd"/><path d="M3092.55 182.297C3111.12 180.12 3128.43 197.542 3131.2 221.21" stroke="#DCEAF7" stroke-width="4.58333" stroke-miterlimit="8" fill="none" fill-rule="evenodd"/><path d="M3121.15 170.291C3139.72 168.114 3157.02 185.536 3159.8 209.204" stroke="#DCEAF7" stroke-width="4.58333" stroke-miterlimit="8" fill="none" fill-rule="evenodd"/><path d="M3004.02 240.984C3002.65 220.247 3017.14 202.822 3036.38 202.065 3055.62 201.308 3072.32 217.506 3073.69 238.243 3073.99 242.817 3073.52 247.382 3072.29 251.714Z" fill="#83A0CF" fill-rule="evenodd"/><path d="M3026.8 226.157 3045.26 229.007 3047.62 249.173 3029.17 246.322Z" fill="#156082" fill-rule="evenodd"/></g></svg>